<?xml version="1.0" encoding="UTF-8" standalone="no"?>
<!-- Created with Inkscape (http://www.inkscape.org/) -->

<svg
   xmlns:dc="http://purl.org/dc/elements/1.1/"
   xmlns:cc="http://creativecommons.org/ns#"
   xmlns:rdf="http://www.w3.org/1999/02/22-rdf-syntax-ns#"
   xmlns:svg="http://www.w3.org/2000/svg"
   xmlns="http://www.w3.org/2000/svg"
   xmlns:sodipodi="http://sodipodi.sourceforge.net/DTD/sodipodi-0.dtd"
   xmlns:inkscape="http://www.inkscape.org/namespaces/inkscape"
   width="48pt"
   height="48pt"
   viewBox="0 0 16.933334 16.933333"
   version="1.1"
   id="svg979"
   inkscape:version="0.92.4 (5da689c313, 2019-01-14)"
   sodipodi:docname="23 - Analytics.svg"
   inkscape:export-filename="E:\TR Design Studio Creative\Project Design\TR Creative Design\Icon Design\Project Hiring\Icon Icons\003 - Business And Finance\Send\4 - Filled Line\22 - Payment Tax.png"
   inkscape:export-xdpi="768"
   inkscape:export-ydpi="768">
  <defs
     id="defs973" />
  <sodipodi:namedview
     id="base"
     pagecolor="#ffffff"
     bordercolor="#666666"
     borderopacity="1.0"
     inkscape:pageopacity="0.0"
     inkscape:pageshadow="2"
     inkscape:zoom="4.2734375"
     inkscape:cx="67.68087"
     inkscape:cy="22.661268"
     inkscape:document-units="pt"
     inkscape:current-layer="layer1"
     showgrid="false"
     units="pt"
     inkscape:window-width="1366"
     inkscape:window-height="716"
     inkscape:window-x="-8"
     inkscape:window-y="-8"
     inkscape:window-maximized="1"
     inkscape:snap-bbox="true"
     inkscape:bbox-nodes="true"
     inkscape:snap-nodes="false"
     showguides="false">
    <inkscape:grid
       type="xygrid"
       id="grid1526" />
    <sodipodi:guide
       position="0.97013909,15.963209"
       orientation="56.666615,0"
       id="guide1528"
       inkscape:locked="false" />
    <sodipodi:guide
       position="0.97013909,0.97016731"
       orientation="0,56.666667"
       id="guide1530"
       inkscape:locked="false" />
    <sodipodi:guide
       position="15.963195,0.97016731"
       orientation="-56.666615,0"
       id="guide1532"
       inkscape:locked="false" />
    <sodipodi:guide
       position="15.963195,15.963209"
       orientation="0,-56.666667"
       id="guide1534"
       inkscape:locked="false" />
  </sodipodi:namedview>
  <metadata
     id="metadata976">
    <rdf:RDF>
      <cc:Work
         rdf:about="">
        <dc:format>image/svg+xml</dc:format>
        <dc:type
           rdf:resource="http://purl.org/dc/dcmitype/StillImage" />
        <dc:title></dc:title>
      </cc:Work>
    </rdf:RDF>
  </metadata>
  <g
     inkscape:label="Layer 1"
     inkscape:groupmode="layer"
     id="layer1"
     transform="translate(0,-280.06668)">
    <g
       transform="matrix(1.2313777,0,0,1.2313777,-53.565187,-123.56745)"
       id="g2453"
       style="stroke-width:0.8120985">
      <path
         sodipodi:nodetypes="ccccccc"
         inkscape:connector-curvature="0"
         id="path2326"
         d="m 47.832912,329.03698 -0.327053,0.77747 c -0.07151,0.17391 0.0561,0.36482 0.244141,0.36524 h 3.5625 c 0.290586,4e-5 0.368838,-0.40042 0.09961,-0.50977 l -2.451171,-1.00195 c -0.52872,-0.1917 -0.937008,-0.0792 -1.128027,0.36901 z"
         style="color:#000000;font-style:normal;font-variant:normal;font-weight:normal;font-stretch:normal;font-size:medium;line-height:normal;font-family:sans-serif;font-variant-ligatures:normal;font-variant-position:normal;font-variant-caps:normal;font-variant-numeric:normal;font-variant-alternates:normal;font-feature-settings:normal;text-indent:0;text-align:start;text-decoration:none;text-decoration-line:none;text-decoration-style:solid;text-decoration-color:#000000;letter-spacing:normal;word-spacing:normal;text-transform:none;writing-mode:lr-tb;direction:ltr;text-orientation:mixed;dominant-baseline:auto;baseline-shift:baseline;text-anchor:start;white-space:normal;shape-padding:0;clip-rule:nonzero;display:inline;overflow:visible;visibility:visible;opacity:1;isolation:auto;mix-blend-mode:normal;color-interpolation:sRGB;color-interpolation-filters:linearRGB;solid-color:#000000;solid-opacity:1;vector-effect:none;fill:#444444;fill-opacity:1;fill-rule:nonzero;stroke:none;stroke-width:0.42973545;stroke-linecap:round;stroke-linejoin:round;stroke-miterlimit:1.5;stroke-dasharray:none;stroke-dashoffset:0;stroke-opacity:1;paint-order:markers fill stroke;color-rendering:auto;image-rendering:auto;shape-rendering:auto;text-rendering:auto;enable-background:accumulate" />
      <path
         inkscape:connector-curvature="0"
         id="path2330"
         d="m 54.607422,330.99805 a 0.26460978,0.26460978 0 0 0 -0.261719,0.26367 v 4.24609 a 0.26460978,0.26460978 0 0 0 0.509766,0.0996 l 1.240234,-3.03515 c 0.189796,-0.46433 -0.0354,-1.00346 -0.5,-1.19336 l -0.884765,-0.36133 a 0.26460978,0.26460978 0 0 0 -0.103516,-0.0195 z"
         style="color:#000000;font-style:normal;font-variant:normal;font-weight:normal;font-stretch:normal;font-size:medium;line-height:normal;font-family:sans-serif;font-variant-ligatures:normal;font-variant-position:normal;font-variant-caps:normal;font-variant-numeric:normal;font-variant-alternates:normal;font-feature-settings:normal;text-indent:0;text-align:start;text-decoration:none;text-decoration-line:none;text-decoration-style:solid;text-decoration-color:#000000;letter-spacing:normal;word-spacing:normal;text-transform:none;writing-mode:lr-tb;direction:ltr;text-orientation:mixed;dominant-baseline:auto;baseline-shift:baseline;text-anchor:start;white-space:normal;shape-padding:0;clip-rule:nonzero;display:inline;overflow:visible;visibility:visible;opacity:1;isolation:auto;mix-blend-mode:normal;color-interpolation:sRGB;color-interpolation-filters:linearRGB;solid-color:#000000;solid-opacity:1;vector-effect:none;fill:#444444;fill-opacity:1;fill-rule:nonzero;stroke:none;stroke-width:0.42973545;stroke-linecap:round;stroke-linejoin:round;stroke-miterlimit:1.5;stroke-dasharray:none;stroke-dashoffset:0;stroke-opacity:1;paint-order:markers fill stroke;color-rendering:auto;image-rendering:auto;shape-rendering:auto;text-rendering:auto;enable-background:accumulate" />
      <path
         inkscape:connector-curvature="0"
         id="path2334"
         d="m 46.134766,333.58203 a 0.26460978,0.26460978 0 0 0 -0.236328,0.16406 l -1.242188,3.03711 c -0.189795,0.46433 0.03539,1.00151 0.5,1.19141 l 0.886719,0.36133 a 0.26460978,0.26460978 0 0 0 0.365234,-0.24414 v -4.2461 a 0.26460978,0.26460978 0 0 0 -0.273437,-0.26367 z"
         style="color:#000000;font-style:normal;font-variant:normal;font-weight:normal;font-stretch:normal;font-size:medium;line-height:normal;font-family:sans-serif;font-variant-ligatures:normal;font-variant-position:normal;font-variant-caps:normal;font-variant-numeric:normal;font-variant-alternates:normal;font-feature-settings:normal;text-indent:0;text-align:start;text-decoration:none;text-decoration-line:none;text-decoration-style:solid;text-decoration-color:#000000;letter-spacing:normal;word-spacing:normal;text-transform:none;writing-mode:lr-tb;direction:ltr;text-orientation:mixed;dominant-baseline:auto;baseline-shift:baseline;text-anchor:start;white-space:normal;shape-padding:0;clip-rule:nonzero;display:inline;overflow:visible;visibility:visible;opacity:1;isolation:auto;mix-blend-mode:normal;color-interpolation:sRGB;color-interpolation-filters:linearRGB;solid-color:#000000;solid-opacity:1;vector-effect:none;fill:#444444;fill-opacity:1;fill-rule:nonzero;stroke:none;stroke-width:0.42973545;stroke-linecap:round;stroke-linejoin:round;stroke-miterlimit:1.5;stroke-dasharray:none;stroke-dashoffset:0;stroke-opacity:1;paint-order:markers fill stroke;color-rendering:auto;image-rendering:auto;shape-rendering:auto;text-rendering:auto;enable-background:accumulate" />
      <path
         inkscape:connector-curvature="0"
         id="path2338"
         d="m 49.414062,339.17578 a 0.26460978,0.26460978 0 0 0 -0.07422,0.50781 l 2.453125,1.00391 c 0.464451,0.18983 1.001623,-0.0377 1.191406,-0.50195 l 0.263672,-0.64649 a 0.26460978,0.26460978 0 0 0 -0.246094,-0.36328 h -3.560547 a 0.26460978,0.26460978 0 0 0 -0.02734,0 z"
         style="color:#000000;font-style:normal;font-variant:normal;font-weight:normal;font-stretch:normal;font-size:medium;line-height:normal;font-family:sans-serif;font-variant-ligatures:normal;font-variant-position:normal;font-variant-caps:normal;font-variant-numeric:normal;font-variant-alternates:normal;font-feature-settings:normal;text-indent:0;text-align:start;text-decoration:none;text-decoration-line:none;text-decoration-style:solid;text-decoration-color:#000000;letter-spacing:normal;word-spacing:normal;text-transform:none;writing-mode:lr-tb;direction:ltr;text-orientation:mixed;dominant-baseline:auto;baseline-shift:baseline;text-anchor:start;white-space:normal;shape-padding:0;clip-rule:nonzero;display:inline;overflow:visible;visibility:visible;opacity:1;isolation:auto;mix-blend-mode:normal;color-interpolation:sRGB;color-interpolation-filters:linearRGB;solid-color:#000000;solid-opacity:1;vector-effect:none;fill:#444444;fill-opacity:1;fill-rule:nonzero;stroke:none;stroke-width:0.42973545;stroke-linecap:round;stroke-linejoin:round;stroke-miterlimit:1.5;stroke-dasharray:none;stroke-dashoffset:0;stroke-opacity:1;paint-order:markers fill stroke;color-rendering:auto;image-rendering:auto;shape-rendering:auto;text-rendering:auto;enable-background:accumulate" />
      <path
         inkscape:connector-curvature="0"
         id="path2300"
         d="m 46.792969,329.65039 c -0.501788,0 -0.914063,0.41227 -0.914063,0.91406 v 8.22657 c 0,0.50178 0.412275,0.91406 0.914063,0.91406 h 7.167969 c 0.501788,0 0.914062,-0.41228 0.914062,-0.91406 v -8.22657 c 0,-0.50179 -0.412274,-0.91406 -0.914062,-0.91406 z"
         style="color:#000000;font-style:normal;font-variant:normal;font-weight:normal;font-stretch:normal;font-size:medium;line-height:normal;font-family:sans-serif;font-variant-ligatures:normal;font-variant-position:normal;font-variant-caps:normal;font-variant-numeric:normal;font-variant-alternates:normal;font-feature-settings:normal;text-indent:0;text-align:start;text-decoration:none;text-decoration-line:none;text-decoration-style:solid;text-decoration-color:#000000;letter-spacing:normal;word-spacing:normal;text-transform:none;writing-mode:lr-tb;direction:ltr;text-orientation:mixed;dominant-baseline:auto;baseline-shift:baseline;text-anchor:start;white-space:normal;shape-padding:0;clip-rule:nonzero;display:inline;overflow:visible;visibility:visible;opacity:1;isolation:auto;mix-blend-mode:normal;color-interpolation:sRGB;color-interpolation-filters:linearRGB;solid-color:#000000;solid-opacity:1;vector-effect:none;fill:#efebe9;fill-opacity:1;fill-rule:nonzero;stroke:none;stroke-width:0.42973575;stroke-linecap:round;stroke-linejoin:round;stroke-miterlimit:1.5;stroke-dasharray:none;stroke-dashoffset:0;stroke-opacity:1;paint-order:markers fill stroke;color-rendering:auto;image-rendering:auto;shape-rendering:auto;text-rendering:auto;enable-background:accumulate" />
      <path
         sodipodi:nodetypes="cccsscc"
         style="color:#000000;font-style:normal;font-variant:normal;font-weight:normal;font-stretch:normal;font-size:medium;line-height:normal;font-family:sans-serif;font-variant-ligatures:normal;font-variant-position:normal;font-variant-caps:normal;font-variant-numeric:normal;font-variant-alternates:normal;font-feature-settings:normal;text-indent:0;text-align:start;text-decoration:none;text-decoration-line:none;text-decoration-style:solid;text-decoration-color:#000000;letter-spacing:normal;word-spacing:normal;text-transform:none;writing-mode:lr-tb;direction:ltr;text-orientation:mixed;dominant-baseline:auto;baseline-shift:baseline;text-anchor:start;white-space:normal;shape-padding:0;clip-rule:nonzero;display:inline;overflow:visible;visibility:visible;opacity:1;isolation:auto;mix-blend-mode:normal;color-interpolation:sRGB;color-interpolation-filters:linearRGB;solid-color:#000000;solid-opacity:1;vector-effect:none;fill:#ff1744;fill-opacity:1;fill-rule:nonzero;stroke:none;stroke-width:0.42973575;stroke-linecap:round;stroke-linejoin:round;stroke-miterlimit:1.5;stroke-dasharray:none;stroke-dashoffset:0;stroke-opacity:1;paint-order:markers fill stroke;color-rendering:auto;image-rendering:auto;shape-rendering:auto;text-rendering:auto;enable-background:accumulate"
         d="m 47.996094,338.44331 v -0.85542 c 5.1e-4,-0.14541 0.118261,-0.26317 0.263672,-0.26368 h 0.794922 c 0.288589,0 0.529297,0.24072 0.529297,0.5293 v 0.5898 z"
         id="path2390"
         inkscape:connector-curvature="0" />
      <path
         sodipodi:nodetypes="sssssssss"
         inkscape:connector-curvature="0"
         id="rect1892"
         d="m 50.376953,330.70898 c -0.288583,0 -0.529297,0.24072 -0.529297,0.5293 v 0.26367 c 0,0.28859 0.240714,0.5293 0.529297,0.5293 h 0.792969 c 0.288583,0 0.529297,-0.24071 0.529297,-0.5293 v -0.26367 c 0,-0.28858 -0.240714,-0.5293 -0.529297,-0.5293 z"
         style="color:#000000;font-style:normal;font-variant:normal;font-weight:normal;font-stretch:normal;font-size:medium;line-height:normal;font-family:sans-serif;font-variant-ligatures:normal;font-variant-position:normal;font-variant-caps:normal;font-variant-numeric:normal;font-variant-alternates:normal;font-feature-settings:normal;text-indent:0;text-align:start;text-decoration:none;text-decoration-line:none;text-decoration-style:solid;text-decoration-color:#000000;letter-spacing:normal;word-spacing:normal;text-transform:none;writing-mode:lr-tb;direction:ltr;text-orientation:mixed;dominant-baseline:auto;baseline-shift:baseline;text-anchor:start;white-space:normal;shape-padding:0;clip-rule:nonzero;display:inline;overflow:visible;visibility:visible;opacity:1;isolation:auto;mix-blend-mode:normal;color-interpolation:sRGB;color-interpolation-filters:linearRGB;solid-color:#000000;solid-opacity:1;vector-effect:none;fill:#7cb342;fill-opacity:1;fill-rule:nonzero;stroke:none;stroke-width:0.42973575;stroke-linecap:round;stroke-linejoin:round;stroke-miterlimit:1.5;stroke-dasharray:none;stroke-dashoffset:0;stroke-opacity:1;paint-order:markers fill stroke;color-rendering:auto;image-rendering:auto;shape-rendering:auto;text-rendering:auto;enable-background:accumulate" />
      <path
         sodipodi:nodetypes="sssssssss"
         inkscape:connector-curvature="0"
         id="rect1894"
         d="m 52.757812,330.70898 c -0.288582,0 -0.529296,0.24072 -0.529296,0.5293 v 0.26367 c 0,0.28859 0.240714,0.5293 0.529296,0.5293 h 0.529297 c 0.288583,0 0.529297,-0.24071 0.529297,-0.5293 v -0.26367 c 0,-0.28858 -0.240714,-0.5293 -0.529297,-0.5293 z"
         style="color:#000000;font-style:normal;font-variant:normal;font-weight:normal;font-stretch:normal;font-size:medium;line-height:normal;font-family:sans-serif;font-variant-ligatures:normal;font-variant-position:normal;font-variant-caps:normal;font-variant-numeric:normal;font-variant-alternates:normal;font-feature-settings:normal;text-indent:0;text-align:start;text-decoration:none;text-decoration-line:none;text-decoration-style:solid;text-decoration-color:#000000;letter-spacing:normal;word-spacing:normal;text-transform:none;writing-mode:lr-tb;direction:ltr;text-orientation:mixed;dominant-baseline:auto;baseline-shift:baseline;text-anchor:start;white-space:normal;shape-padding:0;clip-rule:nonzero;display:inline;overflow:visible;visibility:visible;opacity:1;isolation:auto;mix-blend-mode:normal;color-interpolation:sRGB;color-interpolation-filters:linearRGB;solid-color:#000000;solid-opacity:1;vector-effect:none;fill:#ff1744;fill-opacity:1;fill-rule:nonzero;stroke:none;stroke-width:0.42973575;stroke-linecap:round;stroke-linejoin:round;stroke-miterlimit:1.5;stroke-dasharray:none;stroke-dashoffset:0;stroke-opacity:1;paint-order:markers fill stroke;color-rendering:auto;image-rendering:auto;shape-rendering:auto;text-rendering:auto;enable-background:accumulate" />
      <path
         inkscape:connector-curvature="0"
         id="path2350"
         transform="matrix(0.26458333,0,0,0.26458333,0,284.3)"
         d="m 185.4043,182.40234 c -4.40644,0 -8.00196,3.59552 -8.00196,8.00196 0,4.40643 3.59552,7.99414 8.00196,7.99414 4.40643,0 7.99414,-3.58771 7.99414,-7.99414 0,-4.40644 -3.58771,-8.00196 -7.99414,-8.00196 z m 0,3.49805 c 2.47343,0 4.49414,2.03047 4.49414,4.50391 0,2.47343 -2.02071,4.49609 -4.49414,4.49609 -2.47344,0 -4.50391,-2.02266 -4.50391,-4.49609 0,-2.47344 2.03047,-4.50391 4.50391,-4.50391 z"
         style="color:#000000;font-style:normal;font-variant:normal;font-weight:normal;font-stretch:normal;font-size:medium;line-height:normal;font-family:sans-serif;font-variant-ligatures:normal;font-variant-position:normal;font-variant-caps:normal;font-variant-numeric:normal;font-variant-alternates:normal;font-feature-settings:normal;text-indent:0;text-align:start;text-decoration:none;text-decoration-line:none;text-decoration-style:solid;text-decoration-color:#000000;letter-spacing:normal;word-spacing:normal;text-transform:none;writing-mode:lr-tb;direction:ltr;text-orientation:mixed;dominant-baseline:auto;baseline-shift:baseline;text-anchor:start;white-space:normal;shape-padding:0;clip-rule:nonzero;display:inline;overflow:visible;visibility:visible;opacity:1;isolation:auto;mix-blend-mode:normal;color-interpolation:sRGB;color-interpolation-filters:linearRGB;solid-color:#000000;solid-opacity:1;vector-effect:none;fill:#444444;fill-opacity:1;fill-rule:nonzero;stroke:none;stroke-width:1.62419796;stroke-linecap:round;stroke-linejoin:round;stroke-miterlimit:1.5;stroke-dasharray:none;stroke-dashoffset:0;stroke-opacity:1;paint-order:markers fill stroke;color-rendering:auto;image-rendering:auto;shape-rendering:auto;text-rendering:auto;enable-background:accumulate" />
      <path
         inkscape:connector-curvature="0"
         id="path2359"
         transform="matrix(0.26458333,0,0,0.26458333,0,284.3)"
         d="m 185.4043,182.40234 c -0.34054,0 -0.67435,0.0286 -1.00391,0.0703 v 3.55078 c 0.32405,-0.075 0.65821,-0.12305 1.00391,-0.12305 2.47343,0 4.49414,2.03047 4.49414,4.50391 0,0.34297 -0.0476,0.67464 -0.1211,0.99609 h 3.55274 c 0.0409,-0.32693 0.0684,-0.65829 0.0684,-0.99609 0,-4.40644 -3.58771,-8.00196 -7.99414,-8.00196 z"
         style="color:#000000;font-style:normal;font-variant:normal;font-weight:normal;font-stretch:normal;font-size:medium;line-height:normal;font-family:sans-serif;font-variant-ligatures:normal;font-variant-position:normal;font-variant-caps:normal;font-variant-numeric:normal;font-variant-alternates:normal;font-feature-settings:normal;text-indent:0;text-align:start;text-decoration:none;text-decoration-line:none;text-decoration-style:solid;text-decoration-color:#000000;letter-spacing:normal;word-spacing:normal;text-transform:none;writing-mode:lr-tb;direction:ltr;text-orientation:mixed;dominant-baseline:auto;baseline-shift:baseline;text-anchor:start;white-space:normal;shape-padding:0;clip-rule:nonzero;display:inline;overflow:visible;visibility:visible;opacity:1;isolation:auto;mix-blend-mode:normal;color-interpolation:sRGB;color-interpolation-filters:linearRGB;solid-color:#000000;solid-opacity:1;vector-effect:none;fill:#ff1744;fill-opacity:1;fill-rule:nonzero;stroke:none;stroke-width:1.62419796;stroke-linecap:round;stroke-linejoin:round;stroke-miterlimit:1.5;stroke-dasharray:none;stroke-dashoffset:0;stroke-opacity:1;paint-order:markers fill stroke;color-rendering:auto;image-rendering:auto;shape-rendering:auto;text-rendering:auto;enable-background:accumulate" />
      <path
         inkscape:connector-curvature="0"
         id="path2344"
         d="m 49.054688,333.48633 c -0.654431,0 -1.191407,0.53697 -1.191407,1.1914 0,0.65443 0.536976,1.18946 1.191407,1.18946 0.65443,0 1.189453,-0.53503 1.189453,-1.18946 0,-0.65443 -0.535023,-1.1914 -1.189453,-1.1914 z"
         style="color:#000000;font-style:normal;font-variant:normal;font-weight:normal;font-stretch:normal;font-size:medium;line-height:normal;font-family:sans-serif;font-variant-ligatures:normal;font-variant-position:normal;font-variant-caps:normal;font-variant-numeric:normal;font-variant-alternates:normal;font-feature-settings:normal;text-indent:0;text-align:start;text-decoration:none;text-decoration-line:none;text-decoration-style:solid;text-decoration-color:#000000;letter-spacing:normal;word-spacing:normal;text-transform:none;writing-mode:lr-tb;direction:ltr;text-orientation:mixed;dominant-baseline:auto;baseline-shift:baseline;text-anchor:start;white-space:normal;shape-padding:0;clip-rule:nonzero;display:inline;overflow:visible;visibility:visible;opacity:1;isolation:auto;mix-blend-mode:normal;color-interpolation:sRGB;color-interpolation-filters:linearRGB;solid-color:#000000;solid-opacity:1;vector-effect:none;fill:#efebe9;fill-opacity:1;fill-rule:nonzero;stroke:none;stroke-width:0.42973739;stroke-linecap:round;stroke-linejoin:round;stroke-miterlimit:1.5;stroke-dasharray:none;stroke-dashoffset:0;stroke-opacity:1;paint-order:markers fill stroke;color-rendering:auto;image-rendering:auto;shape-rendering:auto;text-rendering:auto;enable-background:accumulate" />
      <path
         sodipodi:nodetypes="csssscc"
         inkscape:connector-curvature="0"
         id="rect1919"
         d="m 48.525391,338.38086 v -0.79297 c 0,-0.28858 -0.24072,-0.5293 -0.529297,-0.5293 h -0.529297 c -0.288589,0 -0.529297,0.24072 -0.529297,0.5293 v 0.79297 z"
         style="color:#000000;font-style:normal;font-variant:normal;font-weight:normal;font-stretch:normal;font-size:medium;line-height:normal;font-family:sans-serif;font-variant-ligatures:normal;font-variant-position:normal;font-variant-caps:normal;font-variant-numeric:normal;font-variant-alternates:normal;font-feature-settings:normal;text-indent:0;text-align:start;text-decoration:none;text-decoration-line:none;text-decoration-style:solid;text-decoration-color:#000000;letter-spacing:normal;word-spacing:normal;text-transform:none;writing-mode:lr-tb;direction:ltr;text-orientation:mixed;dominant-baseline:auto;baseline-shift:baseline;text-anchor:start;white-space:normal;shape-padding:0;clip-rule:nonzero;display:inline;overflow:visible;visibility:visible;opacity:1;isolation:auto;mix-blend-mode:normal;color-interpolation:sRGB;color-interpolation-filters:linearRGB;solid-color:#000000;solid-opacity:1;vector-effect:none;fill:#ffcd40;fill-opacity:1;fill-rule:nonzero;stroke:none;stroke-width:0.42973575;stroke-linecap:round;stroke-linejoin:round;stroke-miterlimit:1.5;stroke-dasharray:none;stroke-dashoffset:0;stroke-opacity:1;paint-order:markers fill stroke;color-rendering:auto;image-rendering:auto;shape-rendering:auto;text-rendering:auto;enable-background:accumulate" />
      <path
         sodipodi:nodetypes="cccsscc"
         inkscape:connector-curvature="0"
         id="path1924"
         d="m 51.699219,338.38086 v -1.05859 c -5.1e-4,-0.14541 -0.118261,-0.26317 -0.263672,-0.26368 h -0.794922 c -0.288589,0 -0.529297,0.24072 -0.529297,0.5293 v 0.79297 z"
         style="color:#000000;font-style:normal;font-variant:normal;font-weight:normal;font-stretch:normal;font-size:medium;line-height:normal;font-family:sans-serif;font-variant-ligatures:normal;font-variant-position:normal;font-variant-caps:normal;font-variant-numeric:normal;font-variant-alternates:normal;font-feature-settings:normal;text-indent:0;text-align:start;text-decoration:none;text-decoration-line:none;text-decoration-style:solid;text-decoration-color:#000000;letter-spacing:normal;word-spacing:normal;text-transform:none;writing-mode:lr-tb;direction:ltr;text-orientation:mixed;dominant-baseline:auto;baseline-shift:baseline;text-anchor:start;white-space:normal;shape-padding:0;clip-rule:nonzero;display:inline;overflow:visible;visibility:visible;opacity:1;isolation:auto;mix-blend-mode:normal;color-interpolation:sRGB;color-interpolation-filters:linearRGB;solid-color:#000000;solid-opacity:1;vector-effect:none;fill:#ff1744;fill-opacity:1;fill-rule:nonzero;stroke:none;stroke-width:0.42973575;stroke-linecap:round;stroke-linejoin:round;stroke-miterlimit:1.5;stroke-dasharray:none;stroke-dashoffset:0;stroke-opacity:1;paint-order:markers fill stroke;color-rendering:auto;image-rendering:auto;shape-rendering:auto;text-rendering:auto;enable-background:accumulate" />
      <path
         sodipodi:nodetypes="cccsscc"
         inkscape:connector-curvature="0"
         id="path1926"
         d="m 52.757812,338.38086 v -1.32227 c 5.59e-4,-0.14617 -0.117503,-0.2651 -0.263671,-0.26562 h -0.794922 c -0.288589,0 -0.529297,0.24072 -0.529297,0.5293 v 1.05859 z"
         style="color:#000000;font-style:normal;font-variant:normal;font-weight:normal;font-stretch:normal;font-size:medium;line-height:normal;font-family:sans-serif;font-variant-ligatures:normal;font-variant-position:normal;font-variant-caps:normal;font-variant-numeric:normal;font-variant-alternates:normal;font-feature-settings:normal;text-indent:0;text-align:start;text-decoration:none;text-decoration-line:none;text-decoration-style:solid;text-decoration-color:#000000;letter-spacing:normal;word-spacing:normal;text-transform:none;writing-mode:lr-tb;direction:ltr;text-orientation:mixed;dominant-baseline:auto;baseline-shift:baseline;text-anchor:start;white-space:normal;shape-padding:0;clip-rule:nonzero;display:inline;overflow:visible;visibility:visible;opacity:1;isolation:auto;mix-blend-mode:normal;color-interpolation:sRGB;color-interpolation-filters:linearRGB;solid-color:#000000;solid-opacity:1;vector-effect:none;fill:#ffcd40;fill-opacity:1;fill-rule:nonzero;stroke:none;stroke-width:0.42973575;stroke-linecap:round;stroke-linejoin:round;stroke-miterlimit:1.5;stroke-dasharray:none;stroke-dashoffset:0;stroke-opacity:1;paint-order:markers fill stroke;color-rendering:auto;image-rendering:auto;shape-rendering:auto;text-rendering:auto;enable-background:accumulate" />
      <path
         sodipodi:nodetypes="csssscc"
         inkscape:connector-curvature="0"
         id="path1928"
         d="m 53.816406,338.38086 v -2.11524 c 0,-0.28857 -0.24072,-0.52929 -0.529297,-0.52929 h -0.529297 c -0.288588,0 -0.529296,0.24071 -0.529296,0.52929 v 2.11524 z"
         style="color:#000000;font-style:normal;font-variant:normal;font-weight:normal;font-stretch:normal;font-size:medium;line-height:normal;font-family:sans-serif;font-variant-ligatures:normal;font-variant-position:normal;font-variant-caps:normal;font-variant-numeric:normal;font-variant-alternates:normal;font-feature-settings:normal;text-indent:0;text-align:start;text-decoration:none;text-decoration-line:none;text-decoration-style:solid;text-decoration-color:#000000;letter-spacing:normal;word-spacing:normal;text-transform:none;writing-mode:lr-tb;direction:ltr;text-orientation:mixed;dominant-baseline:auto;baseline-shift:baseline;text-anchor:start;white-space:normal;shape-padding:0;clip-rule:nonzero;display:inline;overflow:visible;visibility:visible;opacity:1;isolation:auto;mix-blend-mode:normal;color-interpolation:sRGB;color-interpolation-filters:linearRGB;solid-color:#000000;solid-opacity:1;vector-effect:none;fill:#039be5;fill-opacity:1;fill-rule:nonzero;stroke:none;stroke-width:0.42973575;stroke-linecap:round;stroke-linejoin:round;stroke-miterlimit:1.5;stroke-dasharray:none;stroke-dashoffset:0;stroke-opacity:1;paint-order:markers fill stroke;color-rendering:auto;image-rendering:auto;shape-rendering:auto;text-rendering:auto;enable-background:accumulate" />
    </g>
    <path
       style="color:#000000;font-style:normal;font-variant:normal;font-weight:normal;font-stretch:normal;font-size:medium;line-height:normal;font-family:sans-serif;font-variant-ligatures:normal;font-variant-position:normal;font-variant-caps:normal;font-variant-numeric:normal;font-variant-alternates:normal;font-feature-settings:normal;text-indent:0;text-align:start;text-decoration:none;text-decoration-line:none;text-decoration-style:solid;text-decoration-color:#000000;letter-spacing:normal;word-spacing:normal;text-transform:none;writing-mode:lr-tb;direction:ltr;text-orientation:mixed;dominant-baseline:auto;baseline-shift:baseline;text-anchor:start;white-space:normal;shape-padding:0;clip-rule:nonzero;display:inline;overflow:visible;visibility:visible;opacity:1;isolation:auto;mix-blend-mode:normal;color-interpolation:sRGB;color-interpolation-filters:linearRGB;solid-color:#000000;solid-opacity:1;vector-effect:none;fill:#000000;fill-opacity:1;fill-rule:nonzero;stroke:none;stroke-width:0.529167;stroke-linecap:round;stroke-linejoin:round;stroke-miterlimit:1.5;stroke-dasharray:none;stroke-dashoffset:0;stroke-opacity:1;paint-order:markers fill stroke;color-rendering:auto;image-rendering:auto;shape-rendering:auto;text-rendering:auto;enable-background:accumulate"
       d="m 6.2840478,281.05002 c -0.4394848,0.005 -0.8529495,0.27094 -1.0283124,0.69998 l -0.2424423,0.5937 H 4.0530695 c -0.617893,0 -1.1256726,0.50777 -1.1256726,1.12566 v 3.97772 l -1.5036538,3.67927 c -0.2337081,0.57177 0.043234,1.23419 0.6153355,1.46801 l 0.8883183,0.36336 v 0.64141 c 0,0.61789 0.5077796,1.12567 1.1256726,1.12567 h 3.1982033 l 2.9583072,1.20903 c 0.571917,0.23378 1.233689,-0.0442 1.467383,-0.61597 l 0.242443,-0.59306 h 0.959588 c 0.617889,0 1.125671,-0.50778 1.125671,-1.12567 v -3.97644 l 1.504926,-3.68118 c 0.233711,-0.57176 -0.04325,-1.23417 -0.615333,-1.46801 l -0.889593,-0.36336 v -0.64078 c 0,-0.61789 -0.507782,-1.12566 -1.125671,-1.12566 H 9.6833349 l -2.9595818,-1.20967 c -0.1433459,-0.0586 -0.29359,-0.0856 -0.4397053,-0.084 z m 0.00763,0.65161 c 0.061667,-6.5e-4 0.123469,0.01 0.1851721,0.0356 l 1.4839271,0.60643 H 5.7170624 l 0.1419003,-0.34676 c 0.076087,-0.18613 0.248838,-0.29325 0.4327073,-0.29526 z m -2.2386154,1.29366 h 8.8259246 c 0.268174,0 0.474068,0.2059 0.474068,0.47407 v 10.12977 c 0,0.26817 -0.205894,0.47407 -0.474068,0.47407 H 4.0530682 c -0.2681743,0 -0.4740681,-0.2059 -0.4740681,-0.47407 v -10.12977 c 0,-0.26817 0.2058938,-0.47407 0.4740669,-0.47407 z m 0.4708852,0.65161 a 0.32655693,0.32655693 0 0 0 0.033728,0.65224 h 0.9767747 a 0.32612131,0.32612131 0 1 0 0,-0.65224 H 4.5576797 a 0.32583479,0.32583479 0 0 0 -0.033728,0 z m 3.9420772,0 c -0.3553559,0 -0.6516044,0.29687 -0.6516044,0.65224 v 0.32453 c 0,0.35535 0.2962485,0.6516 0.6516044,0.6516 h 0.9786768 c 0.3553559,0 0.6522424,-0.29625 0.6522424,-0.6516 v -0.32453 c 0,-0.35537 -0.2968865,-0.65224 -0.6522424,-0.65224 z m 2.9315782,0 c -0.355352,0 -0.651603,0.29687 -0.651603,0.65224 v 0.32453 c 0,0.35535 0.296251,0.6516 0.651603,0.6516 h 0.652244 c 0.355352,0 0.651603,-0.29625 0.651603,-0.6516 v -0.32453 c 0,-0.35537 -0.296251,-0.65224 -0.651603,-0.65224 z m -2.9315782,0.65224 h 0.9786768 v 0.32453 h -0.978671 z m 2.9315782,0 h 0.652244 v 0.32453 h -0.652241 z m -6.8399316,0.32453 a 0.32588412,0.32588412 0 1 0 0,0.6516 h 2.2799829 a 0.32588412,0.32588412 0 1 0 0,-0.6516 z m 9.4476216,0.1909 0.642059,0.26217 c 0.248088,0.10146 0.360535,0.36945 0.25899,0.61788 l -0.901049,2.20425 z m -7.1676433,1.11231 c -1.4356263,0 -2.6070509,1.17144 -2.6070509,2.60705 0,1.43563 1.1714246,2.60769 2.6070509,2.60769 1.4356276,0 2.6070519,-1.17206 2.6070519,-2.60769 0,-1.43561 -1.1714243,-2.60705 -2.6070519,-2.60705 z m 3.5838223,0 a 0.32612,0.32612 0 1 0 0,0.65224 h 1.955447 a 0.32612,0.32612 0 1 0 0,-0.65224 z m -3.2586549,0.68087 c 0.8205187,0.13646 1.4635836,0.77893 1.6010102,1.5991 H 8.2624051 C 8.1366026,287.6623 7.7073062,287.23192 7.162823,287.10664 Z m -0.6522435,6.5e-4 v 0.49889 c -0.6494668,0.15054 -1.1396684,0.73365 -1.1396684,1.42665 0,0.80585 0.6608928,1.46484 1.4667445,1.46484 0.6939035,0 1.276275,-0.48944 1.4253837,-1.13967 h 0.5014339 c -0.1541106,0.92734 -0.9543362,1.63029 -1.926813,1.63029 -1.0834732,0 -1.9548121,-0.87198 -1.9548121,-1.95546 0,-0.9717 0.7014814,-1.77053 1.627736,-1.92554 z m 3.8771744,0.62234 a 0.32631252,0.32631252 0 0 0 0.03373,0.65159 h 0.651605 a 0.32587796,0.32587796 0 0 0 0,-0.65159 H 10.42148 a 0.32583479,0.32583479 0 0 0 -0.03373,0 z m -3.5500983,0.48807 c 0.4536962,0 0.8157791,0.36143 0.8157791,0.81513 0,0.4537 -0.3620829,0.81324 -0.8157791,0.81324 -0.453695,0 -0.81514,-0.35954 -0.81514,-0.81324 0,-0.4537 0.361445,-0.81513 0.81514,-0.81513 z m 3.5500983,0.81513 a 0.32655693,0.32655693 0 0 0 0.03373,0.65224 h 1.628375 a 0.32612131,0.32612131 0 1 0 0,-0.65224 H 10.42148 a 0.32583479,0.32583479 0 0 0 -0.03373,0 z m -7.4603581,0.6357 v 3.08367 L 2.2859723,291.99113 C 2.0378682,291.88967 1.925436,291.6217 2.0269852,291.37325 Z m 8.4702131,0.66815 c -0.355345,0 -0.651603,0.29625 -0.651603,0.65161 v 0.65223 h -0.64905 c -0.237001,0 -0.4458562,0.13199 -0.5599717,0.32453 -0.2478542,0 -0.4957539,0 -0.7438753,0 -0.3553448,0 -0.6516032,0.29626 -0.6516032,0.65161 v 0.65159 H 7.4898954 v -0.32706 c 0,-0.35536 -0.2968938,-0.65161 -0.6522386,-0.65161 H 6.0931461 c -0.114358,-0.19228 -0.3224326,-0.32453 -0.5586982,-0.32453 H 4.8828447 c -0.3553461,0 -0.6522401,0.29626 -0.6522401,0.65161 v 0.87813 a 0.32631867,0.32631867 0 0 0 0.3270726,0.42507 h 7.8192478 a 0.32588412,0.32588412 0 0 0 0.324533,-0.34361 v -2.58796 c 0,-0.35537 -0.296259,-0.65161 -0.651605,-0.65161 z m 0,0.65161 h 0.652244 v 2.27996 h -0.652241 v -1.3032 z m -1.300659,1.30129 H 10.746 v 0.97867 h -0.64905 z m -5.2141064,0.32708 H 5.534442 v 0.65159 H 4.8828447 Z m 3.9102596,0 h 0.6516044 v 0.65159 H 8.793103 Z m -2.6070461,0.32453 h 0.6516032 v 0.32706 h -0.651602 z m 2.7877701,2.28252 h 2.2417978 l -0.141915,0.34616 c -0.101564,0.24848 -0.368977,0.3611 -0.617242,0.25963 z"
       id="rect1886"
       inkscape:connector-curvature="0" />
  </g>
</svg>
