<svg width="400" height="294" viewBox="0 0 400 294" fill="none" xmlns="http://www.w3.org/2000/svg">
<mask id="mask0_6_2" style="mask-type:luminance" maskUnits="userSpaceOnUse" x="0" y="0" width="400" height="294">
<path d="M400 0H0V293.878H400V0Z" fill="white"/>
</mask>
<g mask="url(#mask0_6_2)">
<path d="M64.7743 53.6272C58.8186 53.6272 53.985 58.4668 53.985 64.4407V172.523C53.985 208.388 82.9755 237.469 118.731 237.469C154.487 237.469 183.478 208.388 183.478 172.523V96.8816C183.478 90.9077 178.644 86.0677 172.689 86.0677C166.733 86.0677 161.9 90.9077 161.9 96.8816V172.134C161.9 196.343 142.532 215.864 118.731 215.864C94.9306 215.864 75.5635 196.343 75.5635 172.134V64.4407C75.5635 58.4668 70.7299 53.6272 64.7743 53.6272Z" fill="#F7146B"/>
<path d="M226.637 0C200.064 0 177.239 15.9851 167.237 38.8563C164.114 45.98 169.494 53.9563 177.272 53.9563C181.624 53.9563 185.492 51.3335 187.274 47.3508C194.08 32.1752 209.159 21.6084 226.627 21.6084C250.456 21.6084 269.846 41.274 269.846 65.4297V172.684C269.846 178.642 274.686 183.478 280.648 183.478C286.611 183.478 291.451 178.642 291.451 172.684V64.8145C291.451 29.0127 262.424 0 226.627 0H226.637Z" fill="#F7146B"/>
<path d="M226.397 53.994C220.425 53.994 215.577 58.8297 215.577 64.788V172.653C215.577 208.457 244.65 237.471 280.506 237.471C316.362 237.471 345.435 208.446 345.435 172.653V161.935C345.435 155.976 340.588 151.14 334.616 151.14C328.642 151.14 323.796 155.976 323.796 161.935V172.264C323.796 196.433 304.374 216.088 280.506 216.088C256.638 216.088 237.216 196.421 237.216 172.264V64.788C237.216 58.8297 232.369 53.994 226.397 53.994Z" fill="#F7146B"/>
<path d="M-1.52588e-05 64.8183C-1.52588e-05 29.0252 28.9908 0 64.7465 0C100.502 0 129.493 29.0144 129.493 64.8183V172.683C129.493 178.642 124.66 183.478 118.704 183.478C112.748 183.478 107.914 178.642 107.914 172.683V65.4443C107.914 41.2873 88.5477 21.6205 64.7465 21.6205C40.9453 21.6205 21.5785 41.2765 21.5785 65.4443V86.342C21.5785 92.2996 16.745 97.1355 10.7893 97.1355C4.83358 97.1355 -1.52588e-05 92.2996 -1.52588e-05 86.342V64.8183Z" fill="#F7146B"/>
<path d="M10.0251 129.525C4.31895 129.903 -0.00100708 134.925 -0.00100708 140.671V176.973C-0.00100708 207.162 11.8735 234.995 31.1522 255.679C33.2046 257.882 35.9771 258.984 38.7496 258.984C41.5222 258.984 44.112 257.958 46.1645 255.895C50.1406 251.899 50.3018 245.418 46.4331 241.303C30.9802 224.875 21.4806 202.744 21.4806 178.41V140.293C21.4806 134.331 16.6663 129.492 10.7344 129.492C10.7344 129.492 10.0904 129.518 10.0251 129.525Z" fill="#F7146B"/>
<path d="M361.303 0.0323651C361.206 0.0323651 361.119 0.0323651 361.022 0.0323651H360.99C360.871 0.0323651 360.753 0.0323651 360.645 0.0323651C360.623 0.0323651 360.591 0.0323651 360.569 0.0323651C359.07 0.0647317 357.603 0.183407 356.158 0.388394C356.093 0.388394 356.039 0.399184 355.974 0.409972C337.648 2.99929 323.55 18.7402 323.55 37.7824V107.91C323.55 113.865 328.381 118.699 334.336 118.699C334.573 118.699 334.821 118.699 335.059 118.677C340.786 118.3 345.123 113.282 345.123 107.543V38.2571C345.123 29.5614 351.799 22.0632 360.494 21.6316C360.763 21.6208 361.044 21.61 361.314 21.61C364.874 21.61 368.163 22.7752 370.839 24.7388C371.141 24.9545 371.432 25.1919 371.723 25.4292C371.885 25.5696 372.047 25.699 372.208 25.85C372.381 26.0118 372.564 26.1737 372.726 26.3463C372.92 26.5405 373.114 26.7455 373.309 26.9613C373.492 27.1663 373.665 27.3713 373.837 27.5762C374.01 27.7812 374.172 27.997 374.333 28.2128C374.452 28.3746 374.571 28.5256 374.679 28.6875C374.894 29.0004 375.099 29.324 375.283 29.6477C375.369 29.7879 375.444 29.9282 375.52 30.0685C375.725 30.4353 375.908 30.8129 376.092 31.2013C376.135 31.3092 376.189 31.4171 376.232 31.525C376.394 31.9134 376.545 32.3017 376.674 32.701C376.696 32.7549 376.717 32.8088 376.739 32.8736C376.879 33.3267 376.998 33.7906 377.106 34.2545C377.127 34.3516 377.149 34.4487 377.17 34.5458C377.267 35.0097 377.343 35.4845 377.397 35.97C377.397 36.0562 377.418 36.1534 377.418 36.2397C377.461 36.7468 377.494 37.2538 377.494 37.7717V178.123C377.494 182.989 377.105 187.769 376.361 192.429C375.314 199.021 380.32 204.998 386.986 204.998H387.008H387.03C392.337 204.998 396.867 201.136 397.687 195.882C398.593 190.131 399.057 184.241 399.057 178.242V37.7717C399.057 27.6302 395.055 18.4273 388.54 11.6411C382.391 5.22179 373.999 0.98178 364.625 0.16183C364.485 0.151041 364.355 0.140254 364.216 0.129464C363.763 0.097098 363.298 0.0647299 362.845 0.0431522C362.565 0.0323633 362.274 0.021574 361.994 0.021574C361.767 0.021574 361.541 0 361.314 0L361.303 0.0323651Z" fill="#F7146B"/>
<path d="M199.673 226.523C194.633 226.523 189.885 228.914 186.864 232.962L186.82 233.026C170.082 255.47 143.372 270.025 113.328 270.025C104.209 270.025 95.3926 268.672 87.0718 266.172C86.0686 265.87 85.0539 265.728 84.0392 265.728C81.2442 265.728 78.5032 266.843 76.4635 268.878C70.7223 274.634 73.2044 284.407 80.9529 286.798C91.2049 289.958 102.073 291.451 113.296 291.451C113.382 291.451 113.469 291.451 113.566 291.451C130.779 291.419 147.074 287.75 161.664 280.825C176.32 273.877 189.259 263.867 199.651 251.617C220.426 276.117 251.388 291.451 285.975 291.451C311.033 291.451 334.182 283.519 352.949 269.711C353.553 269.267 354.082 268.781 354.546 268.272L354.567 268.25C355.754 267.341 356.909 266.421 358.053 265.469C358.118 265.415 358.193 265.361 358.259 265.306C359.295 264.441 360.309 263.564 361.313 262.666C361.495 262.504 361.69 262.341 361.873 262.168C362.715 261.4 363.535 260.621 364.356 259.831C364.679 259.517 365.024 259.203 365.349 258.89C366.039 258.208 366.719 257.505 367.389 256.801C367.755 256.422 368.133 256.054 368.5 255.665C368.532 255.632 368.565 255.589 368.597 255.557C370.766 253.23 372.849 250.828 374.813 248.328C380.393 241.261 375.45 230.873 366.471 230.873H366.158C362.888 230.873 359.834 232.421 357.805 234.996C357.276 235.667 356.736 236.338 356.175 236.987C355.075 238.297 353.942 239.573 352.766 240.829L352.733 240.861C350.153 243.599 347.412 246.185 344.531 248.588C344.478 248.631 344.424 248.685 344.358 248.728C343.862 249.14 343.355 249.54 342.859 249.951C342.75 250.038 342.632 250.135 342.524 250.221C342.049 250.59 341.574 250.958 341.089 251.325C340.938 251.434 340.786 251.553 340.635 251.661C340.171 252.008 339.707 252.343 339.243 252.679C339.07 252.808 338.898 252.927 338.725 253.046C338.272 253.371 337.808 253.684 337.354 253.999C337.161 254.128 336.967 254.258 336.772 254.388C336.318 254.691 335.865 254.994 335.402 255.286C335.197 255.416 334.991 255.545 334.786 255.675C334.333 255.968 333.88 256.249 333.415 256.531C333.2 256.661 332.984 256.79 332.768 256.92C332.315 257.19 331.851 257.461 331.398 257.732C331.171 257.861 330.955 257.981 330.728 258.11C330.264 258.37 329.801 258.63 329.336 258.879C329.109 258.998 328.894 259.117 328.667 259.236C328.193 259.485 327.718 259.734 327.242 259.982C327.027 260.091 326.811 260.199 326.595 260.307C326.099 260.556 325.613 260.794 325.117 261.032C324.933 261.119 324.761 261.194 324.577 261.281C322.797 262.114 320.973 262.893 319.127 263.608C318.966 263.673 318.803 263.737 318.631 263.803C318.189 263.976 317.736 264.138 317.282 264.301C316.969 264.408 316.656 264.528 316.354 264.647C315.944 264.787 315.523 264.928 315.113 265.069C314.757 265.188 314.411 265.307 314.056 265.425C313.656 265.555 313.246 265.674 312.847 265.804C312.469 265.923 312.102 266.032 311.724 266.15C311.325 266.27 310.936 266.378 310.537 266.486C310.149 266.594 309.76 266.703 309.371 266.811C308.983 266.919 308.584 267.017 308.195 267.114C307.796 267.212 307.397 267.309 306.998 267.406C306.609 267.503 306.22 267.59 305.821 267.677C305.411 267.763 305.001 267.861 304.58 267.947C304.192 268.023 303.803 268.11 303.415 268.185C302.993 268.272 302.562 268.347 302.141 268.423C301.763 268.488 301.375 268.564 300.986 268.618C300.555 268.694 300.113 268.759 299.681 268.824C299.303 268.878 298.925 268.943 298.536 268.986C298.083 269.051 297.63 269.105 297.188 269.159C296.82 269.203 296.443 269.257 296.076 269.289C295.602 269.343 295.137 269.386 294.662 269.43C294.306 269.462 293.94 269.505 293.583 269.527C293.087 269.57 292.59 269.603 292.094 269.635C291.749 269.657 291.414 269.689 291.069 269.7C290.518 269.732 289.958 269.754 289.407 269.776C289.115 269.776 288.835 269.798 288.544 269.808C287.702 269.83 286.849 269.841 285.997 269.841C255.995 269.841 229.318 255.341 212.569 232.972C212.548 233.005 212.527 233.037 212.515 233.07L212.451 232.972C209.451 228.936 204.691 226.523 199.673 226.523Z" fill="#F7146B"/>
</g>
</svg>
