<?xml version="1.0" encoding="UTF-8" standalone="no"?>
<svg
   xmlns:dc="http://purl.org/dc/elements/1.1/"
   xmlns:cc="http://creativecommons.org/ns#"
   xmlns:rdf="http://www.w3.org/1999/02/22-rdf-syntax-ns#"
   xmlns:svg="http://www.w3.org/2000/svg"
   xmlns="http://www.w3.org/2000/svg"
   xmlns:sodipodi="http://sodipodi.sourceforge.net/DTD/sodipodi-0.dtd"
   xmlns:inkscape="http://www.inkscape.org/namespaces/inkscape"
   sodipodi:docname="2 - Whiteboard And Maker.svg"
   inkscape:version="1.0 (4035a4fb49, 2020-05-01)"
   id="svg831"
   version="1.1"
   viewBox="0 0 22.577778 22.577778"
   height="64pt"
   width="64pt"
   inkscape:export-filename="E:\Project\1 - Carlos Project\012 - School And Education\Send\4 - FilledLine\2 - Whiteboard And Maker.png"
   inkscape:export-xdpi="576"
   inkscape:export-ydpi="576">
  <defs
     id="defs825">
    <pattern
       y="0"
       x="0"
       height="6"
       width="6"
       patternUnits="userSpaceOnUse"
       id="EMFhbasepattern" />
    <pattern
       y="0"
       x="0"
       height="6"
       width="6"
       patternUnits="userSpaceOnUse"
       id="EMFhbasepattern-9" />
    <pattern
       y="0"
       x="0"
       height="6"
       width="6"
       patternUnits="userSpaceOnUse"
       id="EMFhbasepattern-0" />
    <pattern
       y="0"
       x="0"
       height="6"
       width="6"
       patternUnits="userSpaceOnUse"
       id="EMFhbasepattern-7" />
    <pattern
       y="0"
       x="0"
       height="6"
       width="6"
       patternUnits="userSpaceOnUse"
       id="EMFhbasepattern-2" />
    <pattern
       y="0"
       x="0"
       height="6"
       width="6"
       patternUnits="userSpaceOnUse"
       id="EMFhbasepattern-98" />
    <pattern
       y="0"
       x="0"
       height="6"
       width="6"
       patternUnits="userSpaceOnUse"
       id="EMFhbasepattern-6" />
    <pattern
       y="0"
       x="0"
       height="6"
       width="6"
       patternUnits="userSpaceOnUse"
       id="EMFhbasepattern-01" />
    <pattern
       y="0"
       x="0"
       height="6"
       width="6"
       patternUnits="userSpaceOnUse"
       id="EMFhbasepattern-07" />
    <pattern
       y="0"
       x="0"
       height="6"
       width="6"
       patternUnits="userSpaceOnUse"
       id="EMFhbasepattern-8" />
    <pattern
       y="0"
       x="0"
       height="6"
       width="6"
       patternUnits="userSpaceOnUse"
       id="EMFhbasepattern-4" />
    <pattern
       y="0"
       x="0"
       height="6"
       width="6"
       patternUnits="userSpaceOnUse"
       id="EMFhbasepattern-40" />
    <pattern
       y="0"
       x="0"
       height="6"
       width="6"
       patternUnits="userSpaceOnUse"
       id="EMFhbasepattern-08" />
    <pattern
       y="0"
       x="0"
       height="6"
       width="6"
       patternUnits="userSpaceOnUse"
       id="EMFhbasepattern-04" />
    <pattern
       y="0"
       x="0"
       height="6"
       width="6"
       patternUnits="userSpaceOnUse"
       id="EMFhbasepattern-014" />
    <pattern
       y="0"
       x="0"
       height="6"
       width="6"
       patternUnits="userSpaceOnUse"
       id="EMFhbasepattern-27" />
    <pattern
       y="0"
       x="0"
       height="6"
       width="6"
       patternUnits="userSpaceOnUse"
       id="EMFhbasepattern-09" />
    <pattern
       y="0"
       x="0"
       height="6"
       width="6"
       patternUnits="userSpaceOnUse"
       id="EMFhbasepattern-5" />
    <pattern
       y="0"
       x="0"
       height="6"
       width="6"
       patternUnits="userSpaceOnUse"
       id="EMFhbasepattern-018" />
  </defs>
  <sodipodi:namedview
     inkscape:document-rotation="0"
     inkscape:snap-global="true"
     inkscape:snap-nodes="false"
     inkscape:bbox-nodes="true"
     inkscape:snap-bbox="true"
     showguides="false"
     inkscape:snap-midpoints="true"
     inkscape:snap-smooth-nodes="true"
     inkscape:snap-intersection-paths="true"
     inkscape:object-paths="true"
     inkscape:showpageshadow="false"
     inkscape:pagecheckerboard="true"
     inkscape:window-maximized="1"
     inkscape:window-y="-8"
     inkscape:window-x="-8"
     inkscape:window-height="716"
     inkscape:window-width="1366"
     units="pt"
     showgrid="false"
     inkscape:current-layer="layer1"
     inkscape:document-units="pt"
     inkscape:cy="42.666667"
     inkscape:cx="42.666667"
     inkscape:zoom="5.671875"
     inkscape:pageshadow="2"
     inkscape:pageopacity="0.0"
     borderopacity="1.0"
     bordercolor="#666666"
     pagecolor="#ffffff"
     id="base">
    <inkscape:grid
       id="grid1378"
       type="xygrid" />
    <sodipodi:guide
       inkscape:locked="false"
       id="guide1380"
       orientation="78.000048,0"
       position="0.97013831,21.607643" />
    <sodipodi:guide
       inkscape:locked="false"
       id="guide1382"
       orientation="0,78.000005"
       position="0.97013831,0.97013129" />
    <sodipodi:guide
       inkscape:locked="false"
       id="guide1384"
       orientation="-78.000048,0"
       position="21.607639,0.97013129" />
    <sodipodi:guide
       inkscape:locked="false"
       id="guide1386"
       orientation="0,-78.000005"
       position="21.607639,21.607643" />
  </sodipodi:namedview>
  <metadata
     id="metadata828">
    <rdf:RDF>
      <cc:Work
         rdf:about="">
        <dc:format>image/svg+xml</dc:format>
        <dc:type
           rdf:resource="http://purl.org/dc/dcmitype/StillImage" />
        <dc:title></dc:title>
      </cc:Work>
    </rdf:RDF>
  </metadata>
  <g
     transform="translate(0,-274.42223)"
     id="layer1"
     inkscape:groupmode="layer"
     inkscape:label="Icon">
    <g
       transform="matrix(1.2580249,0,0,1.2580249,39.01088,313.43312)"
       id="g321">
      <g
         id="g606">
        <path
           id="path577"
           d="m -28.916016,-16.083984 a 0.26460996,0.26460996 0 0 0 -0.263672,0.265625 v 0.529297 a 0.26460996,0.26460996 0 0 0 0.07813,0.1875 l 0.527343,0.529296 a 0.26460996,0.26460996 0 0 0 0.1875,0.07617 h 12.701172 A 0.26460996,0.26460996 0 0 0 -15.5,-14.572266 l 0.529297,-0.529296 a 0.26460996,0.26460996 0 0 0 0.07813,-0.1875 v -0.529297 a 0.26460996,0.26460996 0 0 0 -0.263672,-0.265625 z"
           style="color:#000000;font-style:normal;font-variant:normal;font-weight:normal;font-stretch:normal;font-size:medium;line-height:normal;font-family:sans-serif;font-variant-ligatures:normal;font-variant-position:normal;font-variant-caps:normal;font-variant-numeric:normal;font-variant-alternates:normal;font-variant-east-asian:normal;font-feature-settings:normal;font-variation-settings:normal;text-indent:0;text-align:start;text-decoration:none;text-decoration-line:none;text-decoration-style:solid;text-decoration-color:#000000;letter-spacing:normal;word-spacing:normal;text-transform:none;writing-mode:lr-tb;direction:ltr;text-orientation:mixed;dominant-baseline:auto;baseline-shift:baseline;text-anchor:start;white-space:normal;shape-padding:0;shape-margin:0;inline-size:0;clip-rule:nonzero;display:inline;overflow:visible;visibility:visible;isolation:auto;mix-blend-mode:normal;color-interpolation:sRGB;color-interpolation-filters:linearRGB;solid-color:#000000;solid-opacity:1;vector-effect:none;fill:#d0e2ee;fill-opacity:1;fill-rule:nonzero;stroke:none;stroke-width:0.529167;stroke-linecap:round;stroke-linejoin:round;stroke-miterlimit:1.5;stroke-dasharray:none;stroke-dashoffset:0;stroke-opacity:1;paint-order:markers fill stroke;color-rendering:auto;image-rendering:auto;shape-rendering:auto;text-rendering:auto;enable-background:accumulate;stop-color:#000000" />
        <path
           id="path583-4"
           d="m -29.974609,-26.666016 a 0.26460996,0.26460996 0 0 0 -0.263672,0.263672 v 10.583985 a 0.26460996,0.26460996 0 0 0 0.263672,0.263671 h 15.875 a 0.26460996,0.26460996 0 0 0 0.265625,-0.263671 v -10.583985 a 0.26460996,0.26460996 0 0 0 -0.265625,-0.263672 z"
           style="color:#000000;font-style:normal;font-variant:normal;font-weight:normal;font-stretch:normal;font-size:medium;line-height:normal;font-family:sans-serif;font-variant-ligatures:normal;font-variant-position:normal;font-variant-caps:normal;font-variant-numeric:normal;font-variant-alternates:normal;font-variant-east-asian:normal;font-feature-settings:normal;font-variation-settings:normal;text-indent:0;text-align:start;text-decoration:none;text-decoration-line:none;text-decoration-style:solid;text-decoration-color:#000000;letter-spacing:normal;word-spacing:normal;text-transform:none;writing-mode:lr-tb;direction:ltr;text-orientation:mixed;dominant-baseline:auto;baseline-shift:baseline;text-anchor:start;white-space:normal;shape-padding:0;shape-margin:0;inline-size:0;clip-rule:nonzero;display:inline;overflow:visible;visibility:visible;isolation:auto;mix-blend-mode:normal;color-interpolation:sRGB;color-interpolation-filters:linearRGB;solid-color:#000000;solid-opacity:1;vector-effect:none;fill:#9a605a;fill-opacity:1;fill-rule:nonzero;stroke:none;stroke-width:0.529167;stroke-linecap:round;stroke-linejoin:round;stroke-miterlimit:1.5;stroke-dasharray:none;stroke-dashoffset:0;stroke-opacity:1;paint-order:markers fill stroke;color-rendering:auto;image-rendering:auto;shape-rendering:auto;text-rendering:auto;enable-background:accumulate;stop-color:#000000" />
        <path
           id="path589"
           d="m -28.916016,-25.607422 a 0.26460996,0.26460996 0 0 0 -0.263672,0.263672 v 8.466797 a 0.26460996,0.26460996 0 0 0 0.263672,0.265625 h 13.759766 a 0.26460996,0.26460996 0 0 0 0.263672,-0.265625 v -8.466797 a 0.26460996,0.26460996 0 0 0 -0.263672,-0.263672 z"
           style="color:#000000;font-style:normal;font-variant:normal;font-weight:normal;font-stretch:normal;font-size:medium;line-height:normal;font-family:sans-serif;font-variant-ligatures:normal;font-variant-position:normal;font-variant-caps:normal;font-variant-numeric:normal;font-variant-alternates:normal;font-variant-east-asian:normal;font-feature-settings:normal;font-variation-settings:normal;text-indent:0;text-align:start;text-decoration:none;text-decoration-line:none;text-decoration-style:solid;text-decoration-color:#000000;letter-spacing:normal;word-spacing:normal;text-transform:none;writing-mode:lr-tb;direction:ltr;text-orientation:mixed;dominant-baseline:auto;baseline-shift:baseline;text-anchor:start;white-space:normal;shape-padding:0;shape-margin:0;inline-size:0;clip-rule:nonzero;display:inline;overflow:visible;visibility:visible;isolation:auto;mix-blend-mode:normal;color-interpolation:sRGB;color-interpolation-filters:linearRGB;solid-color:#000000;solid-opacity:1;vector-effect:none;fill:#d0e2ee;fill-opacity:1;fill-rule:nonzero;stroke:none;stroke-width:0.529167;stroke-linecap:round;stroke-linejoin:round;stroke-miterlimit:1.5;stroke-dasharray:none;stroke-dashoffset:0;stroke-opacity:1;paint-order:markers fill stroke;color-rendering:auto;image-rendering:auto;shape-rendering:auto;text-rendering:auto;enable-background:accumulate;stop-color:#000000" />
        <path
           sodipodi:nodetypes="ccccccccccc"
           d="m -15.950964,-20.315556 v 3.704166 h 0.794783 c 0.14612,-5.84e-4 0.264107,-0.119497 0.26355,-0.265617 v -8.466667 c -5.81e-4,-0.145313 -0.118237,-0.262968 -0.26355,-0.263549 h -13.759884 c -0.145313,5.8e-4 -0.26297,0.118236 -0.263551,0.263549 v 0.794784 h 8.995576 c 2.348597,0 4.233076,2.103886 4.233076,4.233334 z"
           style="color:#000000;font-style:normal;font-variant:normal;font-weight:normal;font-stretch:normal;font-size:medium;line-height:normal;font-family:sans-serif;font-variant-ligatures:normal;font-variant-position:normal;font-variant-caps:normal;font-variant-numeric:normal;font-variant-alternates:normal;font-variant-east-asian:normal;font-feature-settings:normal;font-variation-settings:normal;text-indent:0;text-align:start;text-decoration:none;text-decoration-line:none;text-decoration-style:solid;text-decoration-color:#000000;letter-spacing:normal;word-spacing:normal;text-transform:none;writing-mode:lr-tb;direction:ltr;text-orientation:mixed;dominant-baseline:auto;baseline-shift:baseline;text-anchor:start;white-space:normal;shape-padding:0;shape-margin:0;inline-size:0;clip-rule:nonzero;display:inline;overflow:visible;visibility:visible;isolation:auto;mix-blend-mode:normal;color-interpolation:sRGB;color-interpolation-filters:linearRGB;solid-color:#000000;solid-opacity:1;vector-effect:none;fill:#a4badf;fill-opacity:1;fill-rule:nonzero;stroke:none;stroke-width:0.529167;stroke-linecap:round;stroke-linejoin:round;stroke-miterlimit:1.5;stroke-dasharray:none;stroke-dashoffset:0;stroke-opacity:1;paint-order:markers fill stroke;color-rendering:auto;image-rendering:auto;shape-rendering:auto;text-rendering:auto;enable-background:accumulate;stop-color:#000000"
           id="path953" />
        <path
           id="path593"
           d="m -21.507016,-28.783065 c 0,0.29225 -0.236916,0.529166 -0.529166,0.529166 -0.29225,0 -0.529166,-0.236916 -0.529166,-0.529166 0,-0.29225 0.236916,-0.529166 0.529166,-0.529166 0.29225,0 0.529166,0.236916 0.529166,0.529166 z"
           style="color:#000000;font-style:normal;font-variant:normal;font-weight:normal;font-stretch:normal;font-size:medium;line-height:normal;font-family:sans-serif;font-variant-ligatures:normal;font-variant-position:normal;font-variant-caps:normal;font-variant-numeric:normal;font-variant-alternates:normal;font-variant-east-asian:normal;font-feature-settings:normal;font-variation-settings:normal;text-indent:0;text-align:start;text-decoration:none;text-decoration-line:none;text-decoration-style:solid;text-decoration-color:#000000;letter-spacing:normal;word-spacing:normal;text-transform:none;writing-mode:lr-tb;direction:ltr;text-orientation:mixed;dominant-baseline:auto;baseline-shift:baseline;text-anchor:start;white-space:normal;shape-padding:0;shape-margin:0;inline-size:0;clip-rule:nonzero;display:inline;overflow:visible;visibility:visible;isolation:auto;mix-blend-mode:normal;color-interpolation:sRGB;color-interpolation-filters:linearRGB;solid-color:#000000;solid-opacity:1;vector-effect:none;fill:#3a4d5c;fill-opacity:1;fill-rule:nonzero;stroke:none;stroke-width:0.529167;stroke-linecap:round;stroke-linejoin:round;stroke-miterlimit:1.5;stroke-dasharray:none;stroke-dashoffset:0;stroke-opacity:1;paint-order:markers fill stroke;color-rendering:auto;image-rendering:auto;shape-rendering:auto;text-rendering:auto;enable-background:accumulate;stop-color:#000000" />
        <path
           id="path727"
           d="m -22.037109,-29.046875 c 0.149258,0 0.265625,0.114413 0.265625,0.263672 0,0.149259 -0.116367,0.265625 -0.265625,0.265625 -0.149259,0 -0.263672,-0.116366 -0.263672,-0.265625 0,-0.149259 0.114413,-0.263672 0.263672,-0.263672 z"
           style="color:#000000;font-style:normal;font-variant:normal;font-weight:normal;font-stretch:normal;font-size:medium;line-height:normal;font-family:sans-serif;font-variant-ligatures:normal;font-variant-position:normal;font-variant-caps:normal;font-variant-numeric:normal;font-variant-alternates:normal;font-variant-east-asian:normal;font-feature-settings:normal;font-variation-settings:normal;text-indent:0;text-align:start;text-decoration:none;text-decoration-line:none;text-decoration-style:solid;text-decoration-color:#000000;letter-spacing:normal;word-spacing:normal;text-transform:none;writing-mode:lr-tb;direction:ltr;text-orientation:mixed;dominant-baseline:auto;baseline-shift:baseline;text-anchor:start;white-space:normal;shape-padding:0;shape-margin:0;inline-size:0;clip-rule:nonzero;display:inline;overflow:visible;visibility:visible;isolation:auto;mix-blend-mode:normal;color-interpolation:sRGB;color-interpolation-filters:linearRGB;solid-color:#000000;solid-opacity:1;vector-effect:none;fill:#3a4d5c;fill-opacity:1;fill-rule:nonzero;stroke:none;stroke-width:0.529167;stroke-linecap:round;stroke-linejoin:round;stroke-miterlimit:1.5;stroke-dasharray:none;stroke-dashoffset:0;stroke-opacity:1;paint-order:markers fill stroke;color-rendering:auto;image-rendering:auto;shape-rendering:auto;text-rendering:auto;enable-background:accumulate;stop-color:#000000" />
        <path
           id="path595"
           d="m -22.037109,-29.576172 c -0.435242,0 -0.792969,0.357727 -0.792969,0.792969 0,0.435242 0.357727,0.792968 0.792969,0.792969 0.435241,-10e-7 0.794921,-0.357727 0.794921,-0.792969 0,-0.435242 -0.35968,-0.792969 -0.794921,-0.792969 z"
           style="color:#000000;font-style:normal;font-variant:normal;font-weight:normal;font-stretch:normal;font-size:medium;line-height:normal;font-family:sans-serif;font-variant-ligatures:normal;font-variant-position:normal;font-variant-caps:normal;font-variant-numeric:normal;font-variant-alternates:normal;font-variant-east-asian:normal;font-feature-settings:normal;font-variation-settings:normal;text-indent:0;text-align:start;text-decoration:none;text-decoration-line:none;text-decoration-style:solid;text-decoration-color:#000000;letter-spacing:normal;word-spacing:normal;text-transform:none;writing-mode:lr-tb;direction:ltr;text-orientation:mixed;dominant-baseline:auto;baseline-shift:baseline;text-anchor:start;white-space:normal;shape-padding:0;shape-margin:0;inline-size:0;clip-rule:nonzero;display:inline;overflow:visible;visibility:visible;isolation:auto;mix-blend-mode:normal;color-interpolation:sRGB;color-interpolation-filters:linearRGB;solid-color:#000000;solid-opacity:1;vector-effect:none;fill:#3a4d5c;fill-opacity:1;fill-rule:nonzero;stroke:none;stroke-width:0.529167;stroke-linecap:round;stroke-linejoin:round;stroke-miterlimit:1.5;stroke-dasharray:none;stroke-dashoffset:0;stroke-opacity:1;paint-order:markers fill stroke;color-rendering:auto;image-rendering:auto;shape-rendering:auto;text-rendering:auto;enable-background:accumulate;stop-color:#000000" />
        <path
           id="path609"
           d="m -27.591797,-19.257812 c -0.289117,0 -0.529297,0.240178 -0.529297,0.529296 v 1.851563 a 0.26460996,0.26460996 0 0 0 0.263672,0.265625 h 3.705078 a 0.26460996,0.26460996 0 0 0 0.263672,-0.265625 v -1.851563 c 0,-0.289117 -0.24018,-0.529296 -0.529297,-0.529296 z"
           style="color:#000000;font-style:normal;font-variant:normal;font-weight:normal;font-stretch:normal;font-size:medium;line-height:normal;font-family:sans-serif;font-variant-ligatures:normal;font-variant-position:normal;font-variant-caps:normal;font-variant-numeric:normal;font-variant-alternates:normal;font-variant-east-asian:normal;font-feature-settings:normal;font-variation-settings:normal;text-indent:0;text-align:start;text-decoration:none;text-decoration-line:none;text-decoration-style:solid;text-decoration-color:#000000;letter-spacing:normal;word-spacing:normal;text-transform:none;writing-mode:lr-tb;direction:ltr;text-orientation:mixed;dominant-baseline:auto;baseline-shift:baseline;text-anchor:start;white-space:normal;shape-padding:0;shape-margin:0;inline-size:0;clip-rule:nonzero;display:inline;overflow:visible;visibility:visible;isolation:auto;mix-blend-mode:normal;color-interpolation:sRGB;color-interpolation-filters:linearRGB;solid-color:#000000;solid-opacity:1;vector-effect:none;fill:#4895ef;fill-opacity:1;fill-rule:nonzero;stroke:none;stroke-width:0.529167;stroke-linecap:round;stroke-linejoin:round;stroke-miterlimit:1.5;stroke-dasharray:none;stroke-dashoffset:0;stroke-opacity:1;paint-order:markers fill stroke;color-rendering:auto;image-rendering:auto;shape-rendering:auto;text-rendering:auto;enable-background:accumulate;stop-color:#000000" />
        <path
           id="path615"
           d="m -22.300781,-18.464844 a 0.26460996,0.26460996 0 0 0 -0.146485,0.04492 l -0.794922,0.529297 a 0.26460996,0.26460996 0 0 0 -0.117187,0.220703 v 0.263672 a 0.26460996,0.26460996 0 0 0 0.117187,0.220703 l 0.794922,0.529297 a 0.26460996,0.26460996 0 0 0 0.146485,0.04492 h 4.498047 c 0.435242,0 0.79297,-0.359679 0.792968,-0.794922 v -0.263672 c 0,-0.435242 -0.357726,-0.794922 -0.792968,-0.794922 z"
           style="color:#000000;font-style:normal;font-variant:normal;font-weight:normal;font-stretch:normal;font-size:medium;line-height:normal;font-family:sans-serif;font-variant-ligatures:normal;font-variant-position:normal;font-variant-caps:normal;font-variant-numeric:normal;font-variant-alternates:normal;font-variant-east-asian:normal;font-feature-settings:normal;font-variation-settings:normal;text-indent:0;text-align:start;text-decoration:none;text-decoration-line:none;text-decoration-style:solid;text-decoration-color:#000000;letter-spacing:normal;word-spacing:normal;text-transform:none;writing-mode:lr-tb;direction:ltr;text-orientation:mixed;dominant-baseline:auto;baseline-shift:baseline;text-anchor:start;white-space:normal;shape-padding:0;shape-margin:0;inline-size:0;clip-rule:nonzero;display:inline;overflow:visible;visibility:visible;isolation:auto;mix-blend-mode:normal;color-interpolation:sRGB;color-interpolation-filters:linearRGB;solid-color:#000000;solid-opacity:1;vector-effect:none;fill:#91a9d9;fill-opacity:1;fill-rule:nonzero;stroke:none;stroke-width:0.529167;stroke-linecap:round;stroke-linejoin:round;stroke-miterlimit:1.5;stroke-dasharray:none;stroke-dashoffset:0;stroke-opacity:1;paint-order:markers fill stroke;color-rendering:auto;image-rendering:auto;shape-rendering:auto;text-rendering:auto;enable-background:accumulate;stop-color:#000000" />
        <path
           sodipodi:nodetypes="csssscc"
           d="m -23.888463,-17.393896 v -1.05885 c 0,-0.289117 -0.240566,-0.529167 -0.529683,-0.529167 h -3.173451 c -0.289121,0 -0.529686,0.240049 -0.529686,0.529167 v 1.05885 c 1.41094,0 2.82188,0 4.23282,0 z"
           style="color:#000000;font-style:normal;font-variant:normal;font-weight:normal;font-stretch:normal;font-size:medium;line-height:normal;font-family:sans-serif;font-variant-ligatures:normal;font-variant-position:normal;font-variant-caps:normal;font-variant-numeric:normal;font-variant-alternates:normal;font-variant-east-asian:normal;font-feature-settings:normal;font-variation-settings:normal;text-indent:0;text-align:start;text-decoration:none;text-decoration-line:none;text-decoration-style:solid;text-decoration-color:#000000;letter-spacing:normal;word-spacing:normal;text-transform:none;writing-mode:lr-tb;direction:ltr;text-orientation:mixed;dominant-baseline:auto;baseline-shift:baseline;text-anchor:start;white-space:normal;shape-padding:0;shape-margin:0;inline-size:0;clip-rule:nonzero;display:inline;overflow:visible;visibility:visible;isolation:auto;mix-blend-mode:normal;color-interpolation:sRGB;color-interpolation-filters:linearRGB;solid-color:#000000;solid-opacity:1;vector-effect:none;fill:#4377d1;fill-opacity:1;fill-rule:nonzero;stroke:none;stroke-width:0.529167;stroke-linecap:round;stroke-linejoin:round;stroke-miterlimit:1.5;stroke-dasharray:none;stroke-dashoffset:0;stroke-opacity:1;paint-order:markers fill stroke;color-rendering:auto;image-rendering:auto;shape-rendering:auto;text-rendering:auto;enable-background:accumulate;stop-color:#000000"
           id="path565" />
        <path
           transform="scale(0.26458334)"
           d="m -104.2832,-72.785156 c -1.09273,0 -2.00196,0.90727 -2.00196,2 v 4.001953 h 9.031254 a 1.0001006,1.0001006 0 0 1 0.04883,-0.140625 l 1.003906,-2.267578 a 1.0001006,1.0001006 0 0 1 0.923828,-0.597656 1.0001006,1.0001006 0 0 1 0.908203,0.597656 l 0.996094,2.267578 a 1.0001006,1.0001006 0 0 1 0.04883,0.140625 h 3.03711 v -4.001953 c 0,-1.092726 -0.909228,-2 -2.001953,-2 z"
           style="color:#000000;font-style:normal;font-variant:normal;font-weight:normal;font-stretch:normal;font-size:medium;line-height:normal;font-family:sans-serif;font-variant-ligatures:normal;font-variant-position:normal;font-variant-caps:normal;font-variant-numeric:normal;font-variant-alternates:normal;font-variant-east-asian:normal;font-feature-settings:normal;font-variation-settings:normal;text-indent:0;text-align:start;text-decoration:none;text-decoration-line:none;text-decoration-style:solid;text-decoration-color:#000000;letter-spacing:normal;word-spacing:normal;text-transform:none;writing-mode:lr-tb;direction:ltr;text-orientation:mixed;dominant-baseline:auto;baseline-shift:baseline;text-anchor:start;white-space:normal;shape-padding:0;shape-margin:0;inline-size:0;clip-rule:nonzero;display:inline;overflow:visible;visibility:visible;isolation:auto;mix-blend-mode:normal;color-interpolation:sRGB;color-interpolation-filters:linearRGB;solid-color:#000000;solid-opacity:1;vector-effect:none;fill:#7cb3f4;fill-opacity:1;fill-rule:nonzero;stroke:none;stroke-width:2;stroke-linecap:round;stroke-linejoin:round;stroke-miterlimit:1.5;stroke-dasharray:none;stroke-dashoffset:0;stroke-opacity:1;paint-order:markers fill stroke;color-rendering:auto;image-rendering:auto;shape-rendering:auto;text-rendering:auto;enable-background:accumulate;stop-color:#000000"
           id="path657" />
        <path
           id="path667"
           d="m -28.915349,-25.343481 v -1.058333 h 13.758333 v 1.058333 z"
           style="color:#000000;font-style:normal;font-variant:normal;font-weight:normal;font-stretch:normal;font-size:medium;line-height:normal;font-family:sans-serif;font-variant-ligatures:normal;font-variant-position:normal;font-variant-caps:normal;font-variant-numeric:normal;font-variant-alternates:normal;font-variant-east-asian:normal;font-feature-settings:normal;font-variation-settings:normal;text-indent:0;text-align:start;text-decoration:none;text-decoration-line:none;text-decoration-style:solid;text-decoration-color:#000000;letter-spacing:normal;word-spacing:normal;text-transform:none;writing-mode:lr-tb;direction:ltr;text-orientation:mixed;dominant-baseline:auto;baseline-shift:baseline;text-anchor:start;white-space:normal;shape-padding:0;shape-margin:0;inline-size:0;clip-rule:nonzero;display:inline;overflow:visible;visibility:visible;isolation:auto;mix-blend-mode:normal;color-interpolation:sRGB;color-interpolation-filters:linearRGB;solid-color:#000000;solid-opacity:1;vector-effect:none;fill:#66342d;fill-opacity:1;fill-rule:nonzero;stroke:none;stroke-width:0.529167;stroke-linecap:round;stroke-linejoin:round;stroke-miterlimit:1.5;stroke-dasharray:none;stroke-dashoffset:0;stroke-opacity:1;paint-order:markers fill stroke;color-rendering:auto;image-rendering:auto;shape-rendering:auto;text-rendering:auto;enable-background:accumulate;stop-color:#000000" />
        <path
           id="path777"
           d="m -28.650391,-26.136719 h 13.228516 v 0.529297 h -13.228516 z"
           style="color:#000000;font-style:normal;font-variant:normal;font-weight:normal;font-stretch:normal;font-size:medium;line-height:normal;font-family:sans-serif;font-variant-ligatures:normal;font-variant-position:normal;font-variant-caps:normal;font-variant-numeric:normal;font-variant-alternates:normal;font-variant-east-asian:normal;font-feature-settings:normal;font-variation-settings:normal;text-indent:0;text-align:start;text-decoration:none;text-decoration-line:none;text-decoration-style:solid;text-decoration-color:#000000;letter-spacing:normal;word-spacing:normal;text-transform:none;writing-mode:lr-tb;direction:ltr;text-orientation:mixed;dominant-baseline:auto;baseline-shift:baseline;text-anchor:start;white-space:normal;shape-padding:0;shape-margin:0;inline-size:0;clip-rule:nonzero;display:inline;overflow:visible;visibility:visible;isolation:auto;mix-blend-mode:normal;color-interpolation:sRGB;color-interpolation-filters:linearRGB;solid-color:#000000;solid-opacity:1;vector-effect:none;fill:#66342d;fill-opacity:1;fill-rule:nonzero;stroke:none;stroke-width:0.529167;stroke-linecap:round;stroke-linejoin:round;stroke-miterlimit:1.5;stroke-dasharray:none;stroke-dashoffset:0;stroke-opacity:1;paint-order:markers fill stroke;color-rendering:auto;image-rendering:auto;shape-rendering:auto;text-rendering:auto;enable-background:accumulate;stop-color:#000000" />
        <path
           sodipodi:nodetypes="ccccc"
           id="path669"
           d="m -14.892578,-26.666016 h -14.28711 v 1.587891 h 14.28711 z"
           style="color:#000000;font-style:normal;font-variant:normal;font-weight:normal;font-stretch:normal;font-size:medium;line-height:normal;font-family:sans-serif;font-variant-ligatures:normal;font-variant-position:normal;font-variant-caps:normal;font-variant-numeric:normal;font-variant-alternates:normal;font-variant-east-asian:normal;font-feature-settings:normal;font-variation-settings:normal;text-indent:0;text-align:start;text-decoration:none;text-decoration-line:none;text-decoration-style:solid;text-decoration-color:#000000;letter-spacing:normal;word-spacing:normal;text-transform:none;writing-mode:lr-tb;direction:ltr;text-orientation:mixed;dominant-baseline:auto;baseline-shift:baseline;text-anchor:start;white-space:normal;shape-padding:0;shape-margin:0;inline-size:0;clip-rule:nonzero;display:inline;overflow:visible;visibility:visible;isolation:auto;mix-blend-mode:normal;color-interpolation:sRGB;color-interpolation-filters:linearRGB;solid-color:#000000;solid-opacity:1;vector-effect:none;fill:#66342d;fill-opacity:1;fill-rule:nonzero;stroke:none;stroke-width:0.529167;stroke-linecap:round;stroke-linejoin:round;stroke-miterlimit:1.5;stroke-dasharray:none;stroke-dashoffset:0;stroke-opacity:1;paint-order:markers fill stroke;color-rendering:auto;image-rendering:auto;shape-rendering:auto;text-rendering:auto;enable-background:accumulate;stop-color:#000000" />
        <path
           sodipodi:nodetypes="cccccccccccc"
           id="path675"
           d="m -22.300781,-18.464844 c -0.05219,2e-4 -0.103155,0.01583 -0.146485,0.04492 l -0.794922,0.529297 c -0.07353,0.04933 -0.117509,0.132163 -0.117187,0.220703 v 0.263672 c -3.22e-4,0.08854 0.04366,0.171375 0.117187,0.220703 l 0.794922,0.529297 c 0.04333,0.02909 0.09429,0.04472 0.146485,0.04492 h 0.529297 c 0.146171,-5.17e-4 0.264234,-0.119455 0.263672,-0.265625 v -1.587888 z"
           style="color:#000000;font-style:normal;font-variant:normal;font-weight:normal;font-stretch:normal;font-size:medium;line-height:normal;font-family:sans-serif;font-variant-ligatures:normal;font-variant-position:normal;font-variant-caps:normal;font-variant-numeric:normal;font-variant-alternates:normal;font-variant-east-asian:normal;font-feature-settings:normal;font-variation-settings:normal;text-indent:0;text-align:start;text-decoration:none;text-decoration-line:none;text-decoration-style:solid;text-decoration-color:#000000;letter-spacing:normal;word-spacing:normal;text-transform:none;writing-mode:lr-tb;direction:ltr;text-orientation:mixed;dominant-baseline:auto;baseline-shift:baseline;text-anchor:start;white-space:normal;shape-padding:0;shape-margin:0;inline-size:0;clip-rule:nonzero;display:inline;overflow:visible;visibility:visible;isolation:auto;mix-blend-mode:normal;color-interpolation:sRGB;color-interpolation-filters:linearRGB;solid-color:#000000;solid-opacity:1;vector-effect:none;fill:#3a4d5c;fill-opacity:1;fill-rule:nonzero;stroke:none;stroke-width:0.529167;stroke-linecap:round;stroke-linejoin:round;stroke-miterlimit:1.5;stroke-dasharray:none;stroke-dashoffset:0;stroke-opacity:1;paint-order:markers fill stroke;color-rendering:auto;image-rendering:auto;shape-rendering:auto;text-rendering:auto;enable-background:accumulate;stop-color:#000000" />
        <path
           sodipodi:nodetypes="ccccc"
           id="path681"
           d="m -14.892578,-17.140625 h -14.28711 v 1.585937 h 14.28711 z"
           style="color:#000000;font-style:normal;font-variant:normal;font-weight:normal;font-stretch:normal;font-size:medium;line-height:normal;font-family:sans-serif;font-variant-ligatures:normal;font-variant-position:normal;font-variant-caps:normal;font-variant-numeric:normal;font-variant-alternates:normal;font-variant-east-asian:normal;font-feature-settings:normal;font-variation-settings:normal;text-indent:0;text-align:start;text-decoration:none;text-decoration-line:none;text-decoration-style:solid;text-decoration-color:#000000;letter-spacing:normal;word-spacing:normal;text-transform:none;writing-mode:lr-tb;direction:ltr;text-orientation:mixed;dominant-baseline:auto;baseline-shift:baseline;text-anchor:start;white-space:normal;shape-padding:0;shape-margin:0;inline-size:0;clip-rule:nonzero;display:inline;overflow:visible;visibility:visible;isolation:auto;mix-blend-mode:normal;color-interpolation:sRGB;color-interpolation-filters:linearRGB;solid-color:#000000;solid-opacity:1;vector-effect:none;fill:#66342d;fill-opacity:1;fill-rule:nonzero;stroke:none;stroke-width:0.529167;stroke-linecap:round;stroke-linejoin:round;stroke-miterlimit:1.5;stroke-dasharray:none;stroke-dashoffset:0;stroke-opacity:1;paint-order:markers fill stroke;color-rendering:auto;image-rendering:auto;shape-rendering:auto;text-rendering:auto;enable-background:accumulate;stop-color:#000000" />
      </g>
      <path
         transform="scale(0.26458334)"
         d="m -83.289062,-111.7832 c -1.459411,0 -2.684653,1.06432 -2.94336,2.45312 l -11.726562,8.54492 h -15.330076 a 1.0001006,1.0001006 0 0 0 -0.99805,0.996098 v 40.003906 a 1.0001006,1.0001006 0 0 0 0.99805,0.996094 h 3.0039 v 1.003906 a 1.0001006,1.0001006 0 0 0 0.29493,0.708984 l 1.99414,2 a 1.0001006,1.0001006 0 0 0 0.70703,0.28711 h 48.005857 a 1.0001006,1.0001006 0 0 0 0.701172,-0.28711 l 2,-2 a 1.0001006,1.0001006 0 0 0 0.294922,-0.708984 v -1.003906 h 2.998047 a 1.0001006,1.0001006 0 0 0 1.003906,-0.996094 v -40.003906 a 1.0001006,1.0001006 0 0 0 -1.003906,-0.996098 h -15.324219 l -11.728516,-8.54687 c -0.260789,-1.38787 -1.488526,-2.45117 -2.947265,-2.45117 z m 0,2 c 0.564124,0 1.003906,0.43196 1.003906,0.99609 0,0.56413 -0.439782,1.00391 -1.003906,1.00391 -0.564129,0 -0.998047,-0.43978 -0.998047,-1.00391 0,-0.56413 0.433918,-0.99609 0.998047,-0.99609 z m 2.517578,2.61132 8.761718,6.38672 H -94.5625 l 8.759766,-6.38476 c 0.535762,0.82681 1.463263,1.38086 2.513672,1.38086 1.051012,0 1.979786,-0.5552 2.517578,-1.38282 z m -31.513676,8.386724 h 2 v 2.998047 32 2.998047 h -2 z m 4,0 h 49.998051 v 2.001953 h -49.998051 z m 51.998051,0 h 2 v 37.996094 h -2 v -2.998047 -32 z m -51.998051,4.001953 h 49.998051 v 30 h -6.1875 c 0.113824,-0.315806 0.185548,-0.651276 0.185547,-1.003906 v -0.996094 c 0,-1.645009 -1.351085,-3.005859 -2.996094,-3.005859 h -17.001953 a 1.0001006,1.0001006 0 0 0 -0.552735,0.169921 l -3.003906,2.001953 a 1.0001006,1.0001006 0 0 0 -0.443359,0.833985 v 0.996094 a 1.0001006,1.0001006 0 0 0 0.443359,0.833984 l 0.255859,0.169922 h -2.699218 v -6.001953 c 0,-1.092726 -0.909228,-2 -2.001953,-2 H -104.2832 c -1.09273,-4e-6 -2.00196,0.90727 -2.00196,2 v 6.001953 h -2 z m 4.00196,2 c -0.55248,-0.0022 -1.00201,0.443614 -1.00391,0.996094 0.002,0.55248 0.45143,1.000224 1.00391,0.998047 v 4 h -1.00391 a 1.0000006,1.0000006 0 0 0 -0.99805,1.003906 1.0000006,1.0000006 0 0 0 0.99805,0.996094 h 4 a 1.0000006,1.0000006 0 0 0 1.00391,-0.996094 1.0000006,1.0000006 0 0 0 -1.00391,-1.003906 h -0.99609 v -4.998047 c -0.002,-0.552458 -0.45146,-0.998218 -1.00391,-0.996094 z m 14.999997,0 c -1.645009,0 -3.005859,1.353038 -3.005859,2.998047 a 1.0000006,1.0000006 0 0 0 1.003906,0.996094 1.0000006,1.0000006 0 0 0 0.998047,-0.996094 c 0,-0.564125 0.439777,-1.003906 1.003906,-1.003906 0.564125,0 0.996094,0.439773 0.996094,1.003906 0,0.166662 -0.07722,0.353062 -0.347657,0.634765 -0.270436,0.281707 -0.707049,0.595957 -1.18164,0.892579 -0.474592,0.296617 -0.978388,0.577055 -1.423828,0.892578 -0.22272,0.157757 -0.436481,0.316724 -0.634766,0.546875 -0.198282,0.23015 -0.414062,0.574871 -0.414062,1.033203 a 1.0001006,1.0001006 0 0 0 1.003906,0.996094 h 4.001953 a 1.0000006,1.0000006 0 0 0 0.996094,-0.996094 1.0000006,1.0000006 0 0 0 -0.996094,-1.003906 h -1.173828 c 0.432378,-0.282059 0.881869,-0.570798 1.269531,-0.97461 0.479562,-0.499544 0.900391,-1.188151 0.900391,-2.021484 0,-1.645013 -1.351085,-2.998047 -2.996094,-2.998047 z m -7.005859,0.996094 a 1.0000006,1.0000006 0 0 0 -0.996094,0.998047 v 1.003906 h -1.003906 a 1.0000006,1.0000006 0 0 0 -0.998047,0.996094 1.0000006,1.0000006 0 0 0 0.998047,1.003906 h 1.003906 v 0.996094 a 1.0000006,1.0000006 0 0 0 0.996094,1.003906 1.0000006,1.0000006 0 0 0 1.003906,-1.003906 v -0.996094 h 0.996094 a 1.0000006,1.0000006 0 0 0 1.003906,-1.003906 1.0000006,1.0000006 0 0 0 -1.003906,-0.996094 h -0.996094 v -1.003906 a 1.0000006,1.0000006 0 0 0 -1.003906,-0.998047 z m 13,0 a 1.0000006,1.0000006 0 0 0 -0.998047,0.998047 1.0000006,1.0000006 0 0 0 0.998047,1.003906 h 4 a 1.0000006,1.0000006 0 0 0 1.003906,-1.003906 1.0000006,1.0000006 0 0 0 -1.003906,-0.998047 z m 0,4.001953 a 1.0000006,1.0000006 0 0 0 -0.998047,0.996094 1.0000006,1.0000006 0 0 0 0.998047,1.003906 h 4 a 1.0000006,1.0000006 0 0 0 1.003906,-1.003906 1.0000006,1.0000006 0 0 0 -1.003906,-0.996094 z m 8.001953,0.996094 a 1.0000006,1.0000006 0 0 0 -0.998047,1.003906 1.0000006,1.0000006 0 0 0 0.998047,0.996094 h 1.003906 a 1.0000006,1.0000006 0 0 0 0.996094,-0.996094 1.0000006,1.0000006 0 0 0 -0.996094,-1.003906 z m 5.003906,0 a 1.0000006,1.0000006 0 0 0 -1.003906,1.003906 1.0000006,1.0000006 0 0 0 1.003906,0.996094 h 0.996094 a 1.0000006,1.0000006 0 0 0 0.998047,-0.996094 1.0000006,1.0000006 0 0 0 -0.998047,-1.003906 z m -33.999997,16.003906 h 11.994138 v 2 h -1.580079 l -0.707031,-0.707032 a 1.0001006,1.0001006 0 0 0 -0.738281,-0.296874 1.0001006,1.0001006 0 0 0 -0.679688,0.296874 l -0.707031,0.707032 h -7.582028 z m 20.298825,2.998047 h 0.695313 v 3.003906 h -0.695313 l -2.25,-1.505859 z m 2.695313,0 h 11.005859 v 3.003906 h -11.005859 z m 13,0 h 1.003906 c 0.564128,0 0.996093,0.439777 0.996094,1.003906 v 0.996094 c 0,0.564128 -0.431966,1.003906 -0.996094,1.003906 h -1.003906 z m -35.994138,1.003906 h 11.994138 v 2 H -104.2832 Z m -4.00196,4 h 49.998051 v 1.994141 h -49.998051 z m 0,3.994141 h 49.998051 v 0.589843 l -1.410157,1.410157 H -106.875 l -1.41016,-1.410157 z"
         style="color:#000000;font-style:normal;font-variant:normal;font-weight:normal;font-stretch:normal;font-size:medium;line-height:normal;font-family:sans-serif;font-variant-ligatures:normal;font-variant-position:normal;font-variant-caps:normal;font-variant-numeric:normal;font-variant-alternates:normal;font-variant-east-asian:normal;font-feature-settings:normal;font-variation-settings:normal;text-indent:0;text-align:start;text-decoration:none;text-decoration-line:none;text-decoration-style:solid;text-decoration-color:#000000;letter-spacing:normal;word-spacing:normal;text-transform:none;writing-mode:lr-tb;direction:ltr;text-orientation:mixed;dominant-baseline:auto;baseline-shift:baseline;text-anchor:start;white-space:normal;shape-padding:0;shape-margin:0;inline-size:0;clip-rule:nonzero;display:inline;overflow:visible;visibility:visible;opacity:1;isolation:auto;mix-blend-mode:normal;color-interpolation:sRGB;color-interpolation-filters:linearRGB;solid-color:#000000;solid-opacity:1;vector-effect:none;fill:#000000;fill-opacity:1;fill-rule:nonzero;stroke:none;stroke-width:2;stroke-linecap:round;stroke-linejoin:round;stroke-miterlimit:1.5;stroke-dasharray:none;stroke-dashoffset:0;stroke-opacity:1;paint-order:markers fill stroke;color-rendering:auto;image-rendering:auto;shape-rendering:auto;text-rendering:auto;enable-background:accumulate;stop-color:#000000;stop-opacity:1"
         id="path744" />
    </g>
  </g>
</svg>
